HIERARCHY
ROOT Hips
{
	OFFSET 0.000000 0.000000 0.000000
	CHANNELS 6 Xposition Yposition Zposition Zrotation Yrotation Xrotation 
	JOINT LHipJoint
	{
		OFFSET 0.000000 0.000000 0.000000
		CHANNELS 3 Zrotation Yrotation Xrotation
		JOINT LeftUpLeg
		{
			OFFSET 1.363060 -1.794630 0.839290
			CHANNELS 3 Zrotation Yrotation Xrotation
			JOINT LeftLeg
			{
				OFFSET 2.448110 -6.726130 0.000000
				CHANNELS 3 Zrotation Yrotation Xrotation
				JOINT LeftFoot
				{
					OFFSET 2.562200 -7.039590 0.000000
					CHANNELS 3 Zrotation Yrotation Xrotation
					JOINT LeftToeBase
					{
						OFFSET 0.157640 -0.433110 2.322550
						CHANNELS 3 Zrotation Yrotation Xrotation
						End Site
						{
							OFFSET 0.000000 0.000000 0.000000
						}
					}
				}
			}
		}
	}
	JOINT RHipJoint
	{
		OFFSET 0.000000 0.000000 0.000000
		CHANNELS 3 Zrotation Yrotation Xrotation
		JOINT RightUpLeg
		{
			OFFSET -1.305520 -1.794630 0.839290
			CHANNELS 3 Zrotation Yrotation Xrotation
			JOINT RightLeg
			{
				OFFSET -2.542530 -6.985550 0.000000
				CHANNELS 3 Zrotation Yrotation Xrotation
				JOINT RightFoot
				{
					OFFSET -2.568260 -7.056230 0.000000
					CHANNELS 3 Zrotation Yrotation Xrotation
					JOINT RightToeBase
					{
						OFFSET -0.164730 -0.452590 2.363150
						CHANNELS 3 Zrotation Yrotation Xrotation
						End Site
						{
							OFFSET 0.000000 0.000000 0.000000
						}
					}
				}
			}
		}
	}
}
MOTION
Frames: 13
Frame Time: 0.008333
2.845537 16.803913 -1.357257 137.873976 -80.811426 -131.692715 -10.326945 -0.052389 0.137579 -4.148443 -6.452049 -26.040256 0.618588 2.294335 48.971317 4.162940 28.564435 5.473160 6.863800 0.000000 -45.684700 10.058239 0.271934 -1.317703 5.488084 1.850054 -19.301376 1.063957 -2.373618 37.422058 -2.167518 -7.426310 -17.363252 1.233399 -0.000000 -57.061200
2.867140 16.793915 -1.386741 136.809251 -80.594619 -130.896952 -10.317318 -0.126715 0.185359 -4.400969 -7.244160 -27.205850 0.714406 2.443825 51.610183 4.151465 28.466039 5.522801 6.819100 -0.000001 -43.571500 10.124343 0.318715 -1.375802 5.245584 1.761659 -19.195460 1.037408 -2.408362 37.761519 -2.156052 -7.371879 -17.520440 1.253200 -0.000000 -57.107200
2.889370 16.785147 -1.415338 135.561413 -80.390043 -129.910278 -10.305122 -0.207341 0.226238 -4.700569 -7.984705 -28.454777 0.813061 2.595082 54.265590 4.131353 28.281525 5.410702 6.677600 0.000000 -41.764501 10.197832 0.366838 -1.427944 4.973395 1.660469 -19.100086 1.007832 -2.440961 38.078431 -2.148201 -7.341167 -17.660773 1.272199 0.000000 -57.160700
2.912232 16.777647 -1.442799 134.199728 -80.201813 -128.801377 -10.293666 -0.295139 0.256401 -5.031352 -8.649154 -29.792357 0.915220 2.750045 56.935632 4.101234 27.997583 5.086080 6.415200 -0.000000 -39.971700 10.273872 0.414546 -1.472908 4.688858 1.558400 -19.008932 0.975763 -2.470373 38.365120 -2.145720 -7.342581 -17.782079 1.291299 0.000000 -57.210600
2.935761 16.771568 -1.469248 132.733462 -80.030721 -127.579390 -10.282474 -0.391292 0.276015 -5.387772 -9.236852 -31.214358 1.022245 2.907694 59.597780 4.063415 27.635641 4.565623 6.051201 0.000000 -38.040600 10.351630 0.461562 -1.511669 4.396252 1.454438 -18.917920 0.941750 -2.496259 38.616637 -2.148240 -7.374152 -17.883000 1.310400 -0.000000 -57.257500
2.959801 16.767043 -1.495092 131.116290 -79.872607 -126.195339 -10.266826 -0.497814 0.290617 -5.775004 -9.769561 -32.712619 1.136519 3.063149 62.213105 4.025438 27.261970 3.972905 5.664900 0.000000 -36.820999 10.435154 0.509357 -1.545755 4.083266 1.332828 -18.832880 0.906109 -2.518850 38.833275 -2.152973 -7.422135 -17.962148 1.327701 0.000000 -57.315400
2.984609 16.764061 -1.519818 129.445860 -79.734213 -124.750388 -10.252070 -0.615309 0.294991 -6.167485 -10.224463 -34.289830 1.257093 3.219802 64.789004 3.983601 26.846480 3.245077 5.221900 -0.000000 -35.552400 10.516227 0.555350 -1.576132 3.777972 1.208946 -18.740003 0.870071 -2.537124 39.005458 -2.161846 -7.495211 -18.017470 1.344200 -0.000001 -57.369500
3.010046 16.762685 -1.543825 127.681696 -79.609915 -123.202552 -10.233294 -0.744806 0.294122 -6.571237 -10.622936 -35.938893 1.385017 3.373587 67.295759 3.943574 26.438255 2.491659 4.785400 0.000000 -34.821000 10.598913 0.600986 -1.604306 3.467985 1.066787 -18.645866 0.834039 -2.551473 39.135522 -2.171645 -7.577220 -18.048337 1.357800 -0.000001 -57.433100
3.036112 16.762905 -1.567007 125.861438 -79.499158 -121.590241 -10.210860 -0.886309 0.287140 -6.976662 -10.963306 -37.655835 1.519853 3.524659 69.726796 3.905202 26.037393 1.729497 4.362201 -0.000000 -34.462900 10.680963 0.645574 -1.631613 3.161558 0.907431 -18.546201 0.798850 -2.561748 39.221273 -2.181646 -7.663826 -18.054116 1.367800 0.000000 -57.504801
3.062772 16.764648 -1.589336 124.012852 -79.399325 -119.941804 -10.184083 -1.039311 0.273653 -7.379571 -11.247310 -39.434958 1.661162 3.672807 72.075570 3.868787 25.647637 0.981720 3.962100 0.000000 -34.428000 10.761566 0.688904 -1.659307 2.861640 0.729508 -18.439294 0.765158 -2.568107 39.263596 -2.190603 -7.748128 -18.035234 1.373400 0.000000 -57.587100
3.090211 16.767776 -1.610811 122.166470 -79.307224 -118.291817 -10.152395 -1.203238 0.252184 -7.776066 -11.475349 -41.269543 1.808238 3.818146 74.337377 3.834036 25.268620 0.263315 3.590001 0.000000 -34.620400 10.839864 0.731087 -1.688998 2.571204 0.533763 -18.322658 0.733440 -2.570959 39.264560 -2.197427 -7.824395 -17.991894 1.374000 -0.000000 -57.681300
3.118155 16.772210 -1.631645 120.338548 -79.214814 -116.654378 -10.112786 -1.376044 0.223436 -8.171732 -11.652848 -43.153865 1.960098 3.960015 76.506413 3.801295 24.903305 -0.412921 3.250200 0.000000 -34.970100 10.918193 0.772805 -1.720122 2.282646 0.317789 -18.200880 0.703645 -2.570777 39.230410 -2.200330 -7.883050 -17.926243 1.368500 0.000000 -57.792500
3.147140 16.777645 -1.651522 118.591202 -79.123348 -115.100089 -10.067838 -1.557733 0.182494 -8.555246 -11.774156 -45.075883 2.116075 4.099636 78.583071 3.769228 24.545026 -1.042926 2.941199 -0.000000 -35.447900 10.992130 0.813674 -1.756333 2.008393 0.091807 -18.062844 0.676297 -2.568249 39.162326 -2.199918 -7.927164 -17.838630 1.357700 0.000000 -57.917400
